<?xml version="1.0" encoding="UTF-8" standalone="no"?>
<!-- Created with Inkscape (http://www.inkscape.org/) -->
<svg
   xmlns:dc="http://purl.org/dc/elements/1.1/"
   xmlns:cc="http://creativecommons.org/ns#"
   xmlns:rdf="http://www.w3.org/1999/02/22-rdf-syntax-ns#"
   xmlns:svg="http://www.w3.org/2000/svg"
   xmlns="http://www.w3.org/2000/svg"
   xmlns:sodipodi="http://sodipodi.sourceforge.net/DTD/sodipodi-0.dtd"
   xmlns:inkscape="http://www.inkscape.org/namespaces/inkscape"
   width="306.33807"
   height="312.88611"
   id="svg2384"
   sodipodi:version="0.32"
   inkscape:version="0.46"
   sodipodi:docname="Rhomb shape.svg"
   inkscape:output_extension="org.inkscape.output.svg.inkscape"
   version="1.0">
  <defs
     id="defs2386">
    <inkscape:perspective
       sodipodi:type="inkscape:persp3d"
       inkscape:vp_x="0 : 212.5 : 1"
       inkscape:vp_y="0 : 1000 : 0"
       inkscape:vp_z="428.75 : 212.5 : 1"
       inkscape:persp3d-origin="214.375 : 141.66667 : 1"
       id="perspective2393" />
  </defs>
  <sodipodi:namedview
     pagecolor="#ffffff"
     bordercolor="#666666"
     borderopacity="1.0"
     inkscape:pageopacity="0.0"
     inkscape:pageshadow="2"
     inkscape:zoom="1.2"
     inkscape:cx="198.49504"
     inkscape:cy="203.60559"
     inkscape:document-units="pt"
     inkscape:current-layer="layer1"
     id="namedview2388"
     showgrid="false"
     gridtolerance="1"
     inkscape:object-nodes="true"
     objecttolerance="5"
     inkscape:window-width="1034"
     inkscape:window-height="722"
     inkscape:window-x="82"
     inkscape:window-y="25">
    <inkscape:grid
       type="xygrid"
       id="grid2395"
       visible="true"
       enabled="true" />
  </sodipodi:namedview>
  <metadata
     id="metadata2390">
    <rdf:RDF>
      <cc:Work
         rdf:about="">
        <dc:format>image/svg+xml</dc:format>
        <dc:type
           rdf:resource="http://purl.org/dc/dcmitype/StillImage" />
      </cc:Work>
    </rdf:RDF>
  </metadata>
  <g
     inkscape:label="Layer 1"
     inkscape:groupmode="layer"
     id="layer1"
     transform="translate(-57.733983,-25.579358)">
    <g
       id="g2453"
       transform="translate(-1.0059224,0.5387055)">
      <path
         id="path4024"
         d="M 169.25592,48.86671 C 155.10457,53.46106 140.95324,58.05541 126.80189,62.64977 C 121.74862,57.63969 116.70359,52.62135 111.66539,47.59613 C 109.1711,51.12712 109.96502,57.4451 108.7203,62.0321 C 109.82968,69.13571 104.13475,70.48674 98.465604,71.85957 C 86.834381,75.86478 74.778979,78.97791 63.548983,83.97345 C 64.813317,86.68818 70.219546,86.49533 72.912483,88.10542 C 84.272339,91.66908 95.659303,95.86121 107.05262,98.86137 C 110.4627,93.35179 119.19418,90.1781 123.84641,95.7954 C 126.38822,98.1896 126.91305,101.86813 127.40956,104.77234 C 150.22075,114.2041 174.21367,120.74122 197.57619,128.76371 C 203.70994,129.76356 209.83576,135.2938 216.00439,131.9584 C 243.21145,123.48407 270.34469,113.89349 297.58475,106.07054 C 300.67073,110.83112 308.59896,114.77511 313.27368,109.88229 C 316.274,107.40424 315.72353,102.95326 317.41689,99.96622 C 331.0986,93.61502 346.1755,90.33195 360.28524,84.99544 C 359.61993,82.11006 354.42715,82.13311 352.07893,80.66267 C 340.4521,76.70739 328.7239,72.42794 317.00257,69.14078 C 311.6613,74.26318 306.60605,79.7168 300.95456,84.38777 C 299.26707,77.23662 299.00878,69.64131 297.25329,62.62214 C 268.81495,53.5007 240.44185,44.03849 212.01378,34.97316 C 197.76116,39.60434 183.50854,44.23553 169.25592,48.86671 z"
         style="fill:#f2f2f2;fill-opacity:1;fill-rule:nonzero;stroke:none;stroke-width:12.5;stroke-linecap:round;stroke-miterlimit:4;stroke-dasharray:none;stroke-dashoffset:0;stroke-opacity:1" />
      <path
         id="path4028"
         d="M 212.08153,34.69759 L 212.08152,133.58303"
         style="fill:none;fill-opacity:0.75;fill-rule:evenodd;stroke:#000000;stroke-width:0.5;stroke-linecap:butt;stroke-linejoin:miter;stroke-miterlimit:4;stroke-dasharray:none;stroke-opacity:1" />
      <path
         style="fill:#ffffff;fill-opacity:1;stroke:#efb5ba;stroke-width:5;stroke-linecap:butt;stroke-linejoin:round;stroke-miterlimit:10;stroke-dasharray:none;stroke-opacity:1"
         d="M 191.81101,104.90907 C 197.6255,100.6846 204.62813,98.40931 211.81518,98.4093"
         id="path3527" />
      <path
         style="fill:#ffffff;fill-opacity:1;stroke:#efb5ba;stroke-width:5;stroke-linecap:butt;stroke-linejoin:round;stroke-miterlimit:10;stroke-dasharray:none;stroke-opacity:1"
         d="M 191.81101,104.90907 C 185.99652,109.13354 181.66867,115.09033 179.44774,121.92562"
         id="path3529" />
      <path
         style="fill:#ffffff;fill-opacity:1;stroke:#efb5ba;stroke-width:5;stroke-linecap:butt;stroke-linejoin:round;stroke-miterlimit:10;stroke-dasharray:none;stroke-opacity:1"
         d="M 231.81941,104.90904 C 226.00493,100.68456 219.00229,98.40929 211.81522,98.40928"
         id="path3531" />
      <path
         style="fill:#ffffff;fill-opacity:1;stroke:#efb5ba;stroke-width:5;stroke-linecap:butt;stroke-linejoin:round;stroke-miterlimit:10;stroke-dasharray:none;stroke-opacity:1"
         d="M 231.81941,104.90904 C 237.63391,109.13351 241.96176,115.09033 244.18267,121.92562"
         id="path3533" />
      <path
         id="path4060"
         d="M 191.81101,62.836574 C 197.6255,67.061044 204.62813,69.336334 211.81518,69.336344"
         style="fill:#ffffff;fill-opacity:1;stroke:#4099c0;stroke-width:5;stroke-linecap:butt;stroke-linejoin:round;stroke-miterlimit:10;stroke-dasharray:none;stroke-opacity:1" />
      <path
         id="path4062"
         d="M 191.81101,62.836574 C 185.99652,58.612104 181.66867,52.655314 179.44774,45.820024"
         style="fill:#ffffff;fill-opacity:1;stroke:#4099c0;stroke-width:5;stroke-linecap:butt;stroke-linejoin:round;stroke-miterlimit:10;stroke-dasharray:none;stroke-opacity:1" />
      <path
         id="path4064"
         d="M 231.81941,62.836604 C 226.00493,67.061084 219.00229,69.336354 211.81522,69.336364"
         style="fill:#ffffff;fill-opacity:1;stroke:#4099c0;stroke-width:5;stroke-linecap:butt;stroke-linejoin:round;stroke-miterlimit:10;stroke-dasharray:none;stroke-opacity:1" />
      <path
         id="path4066"
         d="M 231.81941,62.836604 C 237.63391,58.612134 241.96176,52.655314 244.18267,45.820024"
         style="fill:#ffffff;fill-opacity:1;stroke:#4099c0;stroke-width:5;stroke-linecap:butt;stroke-linejoin:round;stroke-miterlimit:10;stroke-dasharray:none;stroke-opacity:1" />
      <path
         style="fill:none;fill-opacity:0.75;fill-rule:evenodd;stroke:#000000;stroke-width:2;stroke-linecap:round;stroke-linejoin:miter;stroke-miterlimit:4;stroke-dasharray:none;stroke-opacity:1"
         d="M 59.912494,84.14032 L 107.46531,99.59118 C 109.0104,94.83587 115.31076,91.62569 120.06604,93.17078 C 124.82133,94.71588 128.03151,101.01623 126.48641,105.77152 L 212.08152,133.58303"
         id="path2403"
         sodipodi:nodetypes="ccscc" />
      <path
         sodipodi:nodetypes="ccccc"
         id="path2397"
         d="M 59.912494,84.1403 L 107.46531,68.68945 L 110.79554,46.57815 L 126.48644,62.50912 L 212.08153,34.69759"
         style="fill:none;fill-opacity:0.75;fill-rule:evenodd;stroke:#000000;stroke-width:2;stroke-linecap:round;stroke-linejoin:miter;stroke-miterlimit:4;stroke-dasharray:none;stroke-opacity:1" />
      <path
         sodipodi:nodetypes="ccccc"
         id="path2409"
         d="M 364.25057,84.14031 L 316.69774,68.68946 L 301.00684,84.62042 L 297.67661,62.50912 L 212.08153,34.69759"
         style="fill:none;fill-opacity:0.75;fill-rule:evenodd;stroke:#000000;stroke-width:2;stroke-linecap:round;stroke-linejoin:miter;stroke-miterlimit:4;stroke-dasharray:none;stroke-opacity:1" />
      <path
         style="fill:none;fill-opacity:0.75;fill-rule:evenodd;stroke:#000000;stroke-width:2;stroke-linecap:round;stroke-linejoin:miter;stroke-miterlimit:4;stroke-dasharray:none;stroke-opacity:1"
         d="M 364.25057,84.14031 L 316.69773,99.59117 C 318.24283,104.34644 315.03263,110.64676 310.27733,112.19186 C 305.52206,113.73698 299.2217,110.52678 297.67659,105.77148 L 212.08152,133.58303"
         id="path2399"
         sodipodi:nodetypes="ccscc" />
    </g>
    <g
       id="g2441"
       transform="translate(-1.0059239,-1.1785113)">
      <path
         id="path4022"
         d="M 211.95611,149.124 C 198.45484,158.0884 184.9463,167.44411 172.40232,177.62924 C 172.37109,184.58866 175.33583,192.79515 174.833,198.95293 C 168.01958,196.35516 161.70704,192.2895 155.00087,189.69978 C 131.413,206.84597 107.7227,223.9112 84.234946,241.15837 C 85.720542,244.77629 90.94097,246.4751 93.657152,249.39401 C 113.73276,265.07233 135.64242,279.00591 154.89038,295.32385 C 156.69178,298.21657 153.55826,302.22466 153.90086,305.46568 C 154.03393,308.5616 151.44431,313.07554 153.06737,315.48745 C 159.46097,313.07209 165.3751,309.44269 171.54606,306.48288 C 185.26318,315.84136 198.34934,326.63943 212.14946,335.56817 C 236.48825,318.18166 260.6529,300.47145 284.8765,282.89424 C 289.41594,288.37823 301.04885,287.19256 301.83601,279.35871 C 301.67368,274.78691 299.77165,269.69969 305.4944,267.90429 C 317.03214,259.19571 329.42125,251.3744 340.09159,241.68318 C 330.35785,233.13358 318.61945,225.98486 308.0232,218.12216 C 304.91353,215.92572 301.18309,211.70179 297.47184,215.41526 C 292.4255,217.48952 284.90299,216.26163 283.99261,210.13958 C 282.10141,206.06836 286.40349,200.2287 280.91359,198.28039 C 258.04611,181.86022 235.61581,164.71669 212.23232,149.09638 L 211.95611,149.124 z"
         style="fill:#f9f9f9;fill-opacity:1;fill-rule:nonzero;stroke:none;stroke-width:12.5;stroke-linecap:round;stroke-miterlimit:4;stroke-dasharray:none;stroke-dashoffset:0;stroke-opacity:1" />
      <path
         id="path4026"
         d="M 82.638818,242.01166 L 340.09159,241.68318"
         style="fill:none;fill-opacity:0.75;fill-rule:evenodd;stroke:#000000;stroke-width:0.5;stroke-linecap:butt;stroke-linejoin:miter;stroke-miterlimit:4;stroke-dasharray:none;stroke-opacity:1" />
      <path
         style="fill:none;stroke:#efb5ba;stroke-width:5;stroke-linecap:butt;stroke-linejoin:round;stroke-miterlimit:10;stroke-dasharray:none;stroke-opacity:1"
         d="M 239.74142,315.23346 C 224.32114,294.00926 216.01588,268.44807 216.01591,242.21367"
         id="path3485" />
      <path
         style="fill:none;stroke:#4099c0;stroke-width:5;stroke-linecap:butt;stroke-linejoin:round;stroke-miterlimit:10;stroke-dasharray:none;stroke-opacity:1"
         d="M 110.54222,260.99771 C 114.59681,255.41704 116.7806,248.69603 116.78059,241.79797"
         id="path4497" />
      <path
         style="fill:none;stroke:#4099c0;stroke-width:5;stroke-linecap:butt;stroke-linejoin:round;stroke-miterlimit:10;stroke-dasharray:none;stroke-opacity:1"
         d="M 110.5422,222.59822 C 114.59683,228.17889 116.78058,234.89992 116.78059,241.79797"
         id="path4639" />
      <path
         style="fill:none;stroke:#efb5ba;stroke-width:5;stroke-linecap:butt;stroke-linejoin:round;stroke-miterlimit:10;stroke-dasharray:none;stroke-opacity:1"
         d="M 239.74141,169.19385 C 224.32114,190.41802 216.01588,215.97925 216.01591,242.21362"
         id="path3487" />
      <path
         sodipodi:nodetypes="ccscc"
         id="path2401"
         d="M 341.52426,242.01167 L 301.07341,212.6224 C 298.13449,216.66749 291.15047,217.77365 287.10539,214.83473 C 283.0603,211.89579 281.95414,204.91179 284.89307,200.8667 L 212.08154,147.96602"
         style="fill:none;fill-opacity:0.75;fill-rule:evenodd;stroke:#000000;stroke-width:2;stroke-linecap:round;stroke-linejoin:miter;stroke-miterlimit:4;stroke-dasharray:none;stroke-opacity:1" />
      <path
         style="fill:none;fill-opacity:0.75;fill-rule:evenodd;stroke:#000000;stroke-width:2;stroke-linecap:round;stroke-linejoin:miter;stroke-miterlimit:4;stroke-dasharray:none;stroke-opacity:1"
         d="M 212.08154,147.96602 L 171.63069,177.35528 L 175.29622,199.41347 L 155.45035,189.11099 L 82.638818,242.01166"
         id="path2411"
         sodipodi:nodetypes="ccccc" />
      <path
         style="fill:none;fill-opacity:0.75;fill-rule:evenodd;stroke:#000000;stroke-width:2;stroke-linecap:round;stroke-linejoin:miter;stroke-miterlimit:4;stroke-dasharray:none;stroke-opacity:1"
         d="M 212.08154,336.0573 L 171.63069,306.66804 L 151.78481,316.97053 L 155.45035,294.91235 L 82.638807,242.01167"
         id="path2407"
         sodipodi:nodetypes="ccccc" />
      <path
         sodipodi:nodetypes="ccscc"
         id="path2405"
         d="M 341.52426,242.01167 L 301.07341,271.40092 C 304.01234,275.44601 302.90618,282.43002 298.8611,285.36895 C 294.81601,288.30787 287.832,287.20172 284.89307,283.15663 L 212.08154,336.0573"
         style="fill:none;fill-opacity:0.75;fill-rule:evenodd;stroke:#000000;stroke-width:2;stroke-linecap:round;stroke-linejoin:miter;stroke-miterlimit:4;stroke-dasharray:none;stroke-opacity:1" />
    </g>
  </g>
</svg>
